<svg version="1.1" id="Layer_1" xmlns="http://www.w3.org/2000/svg" xmlns:xlink="http://www.w3.org/1999/xlink" x="0px" y="0px" width="100%" viewBox="0 0 1200 1200" enable-background="new 0 0 1200 1200" xml:space="preserve">
<path fill="#663399" opacity="1.000000" stroke="none" d="
M1037.000000,1201.000000 
	C746.635742,1201.000000 456.271515,1201.000000 165.553925,1200.594849 
	C164.855743,1199.858154 164.561676,1199.326538 164.158646,1199.223999 
	C151.957794,1196.125122 139.541443,1193.707275 127.578537,1189.873169 
	C101.929993,1181.652832 79.887939,1167.045776 60.406876,1148.749878 
	C41.102470,1130.619995 26.163195,1109.230713 15.929861,1084.697510 
	C10.492931,1071.663208 5.958836,1058.363892 3.844930,1044.311646 
	C3.465402,1041.788818 1.976620,1039.432983 0.999995,1037.000000 
	C1.000000,691.734558 1.000000,346.469116 1.000000,1.000000 
	C346.030884,1.000000 691.061829,1.000000 1036.446777,1.405259 
	C1037.306152,2.178385 1037.776367,2.802398 1038.321899,2.877270 
	C1061.526245,6.061459 1083.171631,13.742889 1103.557007,25.193684 
	C1130.491455,40.323090 1152.632446,60.761669 1169.617432,86.431030 
	C1185.007080,109.689331 1195.151123,135.213928 1199.094482,163.013931 
	C1199.199097,163.751205 1200.341553,164.341278 1201.000000,165.000000 
	C1201.000000,455.364258 1201.000000,745.728516 1200.594971,1036.444092 
	C1199.821899,1037.300659 1199.191284,1037.773438 1199.123901,1038.316162 
	C1196.735962,1057.571655 1190.775757,1075.799927 1182.300049,1093.107422 
	C1170.960327,1116.263306 1155.757935,1136.545410 1136.129761,1153.555420 
	C1124.618042,1163.531494 1112.391968,1172.379150 1098.988281,1179.400391 
	C1080.142334,1189.272583 1060.192871,1196.192993 1038.981445,1199.095825 
	C1038.247925,1199.196167 1037.657349,1200.341675 1037.000000,1201.000000 
M951.026978,758.751953 
	C953.760376,745.504944 960.395752,735.441345 974.374512,732.524536 
	C979.961426,731.358704 985.965088,731.419983 991.699707,731.890259 
	C1004.073730,732.904907 1011.969116,740.048401 1015.011108,751.858032 
	C1016.992371,759.549683 1018.112000,767.520935 1018.931519,775.437927 
	C1019.763245,783.472839 1019.752014,791.594971 1020.111877,799.722046 
	C1046.824585,799.722046 1073.235352,799.722046 1099.976074,799.722046 
	C1100.981201,769.676270 1097.845093,740.593384 1085.299927,713.199341 
	C1073.685913,687.838501 1054.677368,670.403870 1027.931885,661.810913 
	C999.675293,652.732422 971.239380,652.588501 942.840820,660.890137 
	C908.058838,671.057678 884.655945,693.510742 872.886597,727.722656 
	C863.424072,755.229309 862.214355,783.438354 866.938171,812.044678 
	C871.448853,839.360535 884.072449,861.767944 906.030457,878.907532 
	C921.525269,891.002258 939.091797,899.309082 956.549866,907.963196 
	C970.087524,914.673889 983.497314,921.765320 996.371460,929.654297 
	C1007.285217,936.342102 1013.963196,946.765686 1016.747437,959.369324 
	C1020.108948,974.585938 1019.759583,989.779663 1016.003235,1004.911072 
	C1012.718750,1018.141968 1005.003845,1026.771240 991.086731,1028.789062 
	C975.905151,1030.990356 962.459839,1028.503784 953.589478,1014.249084 
	C947.734985,1004.840881 944.959717,994.458496 943.994263,983.567566 
	C943.397766,976.838867 943.288757,970.066956 942.959167,963.279907 
	C915.336670,963.279907 887.910583,963.279907 860.057495,963.279907 
	C859.380066,992.830994 862.928650,1021.287781 876.555847,1047.741455 
	C890.418335,1074.651978 912.039856,1092.086914 941.267395,1100.224365 
	C959.355591,1105.260620 977.836487,1105.932617 996.295654,1104.773438 
	C1038.470337,1102.124878 1070.524292,1082.676514 1089.913818,1044.676514 
	C1108.843018,1007.578369 1109.840454,968.705200 1099.385620,928.960449 
	C1091.267212,898.097656 1074.943115,873.182861 1046.902222,857.261230 
	C1029.585571,847.428955 1011.428345,839.083435 993.721191,829.929749 
	C985.175659,825.512207 976.456177,821.292053 968.432251,816.040161 
	C958.817627,809.747131 952.773071,800.234619 951.389465,788.907349 
	C950.211609,779.265015 951.002380,769.382263 951.026978,758.751953 
M810.746216,886.778625 
	C805.841370,881.577515 801.319641,875.938293 795.963135,871.253662 
	C776.183655,853.954895 752.976135,842.396484 729.099976,831.955811 
	C719.981995,827.968628 710.897583,823.725891 702.339783,818.680359 
	C690.901428,811.936401 683.211365,801.713074 681.587952,788.406128 
	C680.411682,778.764771 680.253540,768.753296 681.446350,759.130615 
	C682.962646,746.898682 689.198669,736.778748 701.916077,733.355286 
	C708.324951,731.630005 715.411804,731.501099 722.104248,731.952637 
	C734.255432,732.772461 742.028687,739.911072 745.205750,751.484619 
	C747.044495,758.182861 748.235474,765.137268 748.918091,772.055298 
	C749.825745,781.254150 749.953918,790.529785 750.415833,799.750366 
	C777.112488,799.750366 803.552551,799.750366 830.301636,799.750366 
	C831.256592,770.232849 828.208252,741.610596 816.222473,714.549683 
	C804.535645,688.163635 784.996277,670.128052 757.296021,661.475159 
	C729.350098,652.745544 701.205444,652.636719 673.150818,660.884094 
	C636.986694,671.515503 613.388855,695.219055 602.052734,730.994812 
	C593.964539,756.520325 593.052551,782.603271 596.726074,809.054932 
	C601.433655,842.952515 618.501831,868.715759 647.309021,886.619873 
	C658.721741,893.713074 670.939331,899.508423 682.768372,905.935303 
	C698.089050,914.259155 713.724854,922.072876 728.576538,931.165283 
	C738.388367,937.172241 744.156616,947.051819 746.763855,958.333679 
	C750.385803,974.006409 750.112061,989.689636 746.151367,1005.321899 
	C742.837585,1018.400635 735.089966,1026.765137 721.438843,1028.772217 
	C706.274719,1031.001831 692.240234,1028.868286 684.143127,1014.185730 
	C679.892822,1006.478577 677.058228,997.690308 675.214539,989.042725 
	C673.440735,980.723022 673.768311,971.955322 673.175537,963.427002 
	C645.632996,963.427002 618.085754,963.427002 590.185608,963.427002 
	C589.856812,992.070679 593.023682,1019.639465 605.642090,1045.395996 
	C619.549316,1073.783325 641.786682,1092.167969 672.369324,1100.465454 
	C690.138367,1105.286255 708.304260,1105.949829 726.427429,1104.783447 
	C771.607544,1101.875732 804.309387,1079.963257 823.206909,1038.567871 
	C836.784607,1008.825623 838.991211,977.578125 833.449463,945.687927 
	C829.828918,924.853577 822.909180,905.152649 810.746216,886.778625 
M307.000061,982.494629 
	C307.986816,993.590820 308.021362,1004.871521 310.129425,1015.750427 
	C318.161591,1057.201538 341.994049,1085.234619 382.642456,1098.105469 
	C405.902161,1105.470337 429.796173,1106.639282 453.830994,1103.649170 
	C479.028229,1100.514160 501.859772,1091.438477 520.719360,1073.927734 
	C546.384399,1050.098267 557.077393,1019.651917 558.944397,985.513977 
	C559.348938,978.117126 559.003479,970.679138 559.003479,963.298218 
	C528.991028,963.298218 499.886993,963.298218 470.359741,963.298218 
	C470.359741,965.169250 470.471375,966.805725 470.341278,968.422791 
	C469.594696,977.701477 469.445374,987.089844 467.850861,996.224060 
	C465.534790,1009.491943 458.662933,1019.826050 445.057465,1024.001709 
	C425.345001,1030.051514 407.149994,1020.827759 400.077057,1001.497498 
	C396.116638,990.673523 395.456329,979.369934 395.446411,968.018005 
	C395.396271,910.687439 395.362122,853.356689 395.494476,796.026428 
	C395.512878,788.052368 396.076721,780.026428 397.120514,772.121277 
	C398.435852,762.159485 400.802277,752.274902 408.037537,744.738098 
	C420.965698,731.271301 455.848541,730.066284 465.733673,757.477478 
	C468.340942,764.707336 469.111969,772.711182 469.918610,780.443848 
	C470.583405,786.816833 470.054352,793.314392 470.054352,799.632812 
	C500.188263,799.632812 529.414185,799.632812 558.752991,799.632812 
	C559.835388,778.144409 558.163208,757.316711 552.894531,736.835693 
	C543.453308,700.135193 521.080505,675.048096 484.945953,663.291321 
	C450.606964,652.118835 416.005646,652.927063 381.841522,664.377014 
	C353.024689,674.034851 331.344238,692.309021 318.449036,720.146667 
	C309.675507,739.086670 306.997314,759.319885 306.998566,780.006287 
	C307.002655,847.169739 306.999786,914.333191 307.000061,982.494629 
z" data-index="0" style="visibility: visible; opacity: 1;"></path>

<path fill="#000000" opacity="1.000000" stroke="none" d="
M1037.468628,1201.000000 
	C1037.657349,1200.341675 1038.247925,1199.196167 1038.981445,1199.095825 
	C1060.192871,1196.192993 1080.142334,1189.272583 1098.988281,1179.400391 
	C1112.391968,1172.379150 1124.618042,1163.531494 1136.129761,1153.555420 
	C1155.757935,1136.545410 1170.960327,1116.263306 1182.300049,1093.107422 
	C1190.775757,1075.799927 1196.735962,1057.571655 1199.123901,1038.316162 
	C1199.191284,1037.773438 1199.821899,1037.300659 1200.594971,1036.897705 
	C1201.000000,1091.593628 1201.000000,1146.187378 1201.000000,1201.000000 
	C1146.645996,1201.000000 1092.291626,1201.000000 1037.468628,1201.000000 
z" data-index="2" style="visibility: hidden; opacity: 1;"></path>

<path fill="#FFFEFF" opacity="1.000000" stroke="none" d="
M950.974609,759.178894 
	C951.002380,769.382263 950.211609,779.265015 951.389465,788.907349 
	C952.773071,800.234619 958.817627,809.747131 968.432251,816.040161 
	C976.456177,821.292053 985.175659,825.512207 993.721191,829.929749 
	C1011.428345,839.083435 1029.585571,847.428955 1046.902222,857.261230 
	C1074.943115,873.182861 1091.267212,898.097656 1099.385620,928.960449 
	C1109.840454,968.705200 1108.843018,1007.578369 1089.913818,1044.676514 
	C1070.524292,1082.676514 1038.470337,1102.124878 996.295654,1104.773438 
	C977.836487,1105.932617 959.355591,1105.260620 941.267395,1100.224365 
	C912.039856,1092.086914 890.418335,1074.651978 876.555847,1047.741455 
	C862.928650,1021.287781 859.380066,992.830994 860.057495,963.279907 
	C887.910583,963.279907 915.336670,963.279907 942.959167,963.279907 
	C943.288757,970.066956 943.397766,976.838867 943.994263,983.567566 
	C944.959717,994.458496 947.734985,1004.840881 953.589478,1014.249084 
	C962.459839,1028.503784 975.905151,1030.990356 991.086731,1028.789062 
	C1005.003845,1026.771240 1012.718750,1018.141968 1016.003235,1004.911072 
	C1019.759583,989.779663 1020.108948,974.585938 1016.747437,959.369324 
	C1013.963196,946.765686 1007.285217,936.342102 996.371460,929.654297 
	C983.497314,921.765320 970.087524,914.673889 956.549866,907.963196 
	C939.091797,899.309082 921.525269,891.002258 906.030457,878.907532 
	C884.072449,861.767944 871.448853,839.360535 866.938171,812.044678 
	C862.214355,783.438354 863.424072,755.229309 872.886597,727.722656 
	C884.655945,693.510742 908.058838,671.057678 942.840820,660.890137 
	C971.239380,652.588501 999.675293,652.732422 1027.931885,661.810913 
	C1054.677368,670.403870 1073.685913,687.838501 1085.299927,713.199341 
	C1097.845093,740.593384 1100.981201,769.676270 1099.976074,799.722046 
	C1073.235352,799.722046 1046.824585,799.722046 1020.111877,799.722046 
	C1019.752014,791.594971 1019.763245,783.472839 1018.931519,775.437927 
	C1018.112000,767.520935 1016.992371,759.549683 1015.011108,751.858032 
	C1011.969116,740.048401 1004.073730,732.904907 991.699707,731.890259 
	C985.965088,731.419983 979.961426,731.358704 974.374512,732.524536 
	C960.395752,735.441345 953.760376,745.504944 950.974609,759.178894 
z" data-index="4" style="visibility: visible; opacity: 1;"></path>
<path fill="#FFFEFF" opacity="1.000000" stroke="none" d="
M810.951721,887.070984 
	C822.909180,905.152649 829.828918,924.853577 833.449463,945.687927 
	C838.991211,977.578125 836.784607,1008.825623 823.206909,1038.567871 
	C804.309387,1079.963257 771.607544,1101.875732 726.427429,1104.783447 
	C708.304260,1105.949829 690.138367,1105.286255 672.369324,1100.465454 
	C641.786682,1092.167969 619.549316,1073.783325 605.642090,1045.395996 
	C593.023682,1019.639465 589.856812,992.070679 590.185608,963.427002 
	C618.085754,963.427002 645.632996,963.427002 673.175537,963.427002 
	C673.768311,971.955322 673.440735,980.723022 675.214539,989.042725 
	C677.058228,997.690308 679.892822,1006.478577 684.143127,1014.185730 
	C692.240234,1028.868286 706.274719,1031.001831 721.438843,1028.772217 
	C735.089966,1026.765137 742.837585,1018.400635 746.151367,1005.321899 
	C750.112061,989.689636 750.385803,974.006409 746.763855,958.333679 
	C744.156616,947.051819 738.388367,937.172241 728.576538,931.165283 
	C713.724854,922.072876 698.089050,914.259155 682.768372,905.935303 
	C670.939331,899.508423 658.721741,893.713074 647.309021,886.619873 
	C618.501831,868.715759 601.433655,842.952515 596.726074,809.054932 
	C593.052551,782.603271 593.964539,756.520325 602.052734,730.994812 
	C613.388855,695.219055 636.986694,671.515503 673.150818,660.884094 
	C701.205444,652.636719 729.350098,652.745544 757.296021,661.475159 
	C784.996277,670.128052 804.535645,688.163635 816.222473,714.549683 
	C828.208252,741.610596 831.256592,770.232849 830.301636,799.750366 
	C803.552551,799.750366 777.112488,799.750366 750.415833,799.750366 
	C749.953918,790.529785 749.825745,781.254150 748.918091,772.055298 
	C748.235474,765.137268 747.044495,758.182861 745.205750,751.484619 
	C742.028687,739.911072 734.255432,732.772461 722.104248,731.952637 
	C715.411804,731.501099 708.324951,731.630005 701.916077,733.355286 
	C689.198669,736.778748 682.962646,746.898682 681.446350,759.130615 
	C680.253540,768.753296 680.411682,778.764771 681.587952,788.406128 
	C683.211365,801.713074 690.901428,811.936401 702.339783,818.680359 
	C710.897583,823.725891 719.981995,827.968628 729.099976,831.955811 
	C752.976135,842.396484 776.183655,853.954895 795.963135,871.253662 
	C801.319641,875.938293 805.841370,881.577515 810.951721,887.070984 
z" data-index="5" style="opacity: 1;"></path>
<path fill="#FFFFFF" opacity="1.000000" stroke="none" d="
M306.999847,981.995605 
	C306.999786,914.333191 307.002655,847.169739 306.998566,780.006287 
	C306.997314,759.319885 309.675507,739.086670 318.449036,720.146667 
	C331.344238,692.309021 353.024689,674.034851 381.841522,664.377014 
	C416.005646,652.927063 450.606964,652.118835 484.945953,663.291321 
	C521.080505,675.048096 543.453308,700.135193 552.894531,736.835693 
	C558.163208,757.316711 559.835388,778.144409 558.752991,799.632812 
	C529.414185,799.632812 500.188263,799.632812 470.054352,799.632812 
	C470.054352,793.314392 470.583405,786.816833 469.918610,780.443848 
	C469.111969,772.711182 468.340942,764.707336 465.733673,757.477478 
	C455.848541,730.066284 420.965698,731.271301 408.037537,744.738098 
	C400.802277,752.274902 398.435852,762.159485 397.120514,772.121277 
	C396.076721,780.026428 395.512878,788.052368 395.494476,796.026428 
	C395.362122,853.356689 395.396271,910.687439 395.446411,968.018005 
	C395.456329,979.369934 396.116638,990.673523 400.077057,1001.497498 
	C407.149994,1020.827759 425.345001,1030.051514 445.057465,1024.001709 
	C458.662933,1019.826050 465.534790,1009.491943 467.850861,996.224060 
	C469.445374,987.089844 469.594696,977.701477 470.341278,968.422791 
	C470.471375,966.805725 470.359741,965.169250 470.359741,963.298218 
	C499.886993,963.298218 528.991028,963.298218 559.003479,963.298218 
	C559.003479,970.679138 559.348938,978.117126 558.944397,985.513977 
	C557.077393,1019.651917 546.384399,1050.098267 520.719360,1073.927734 
	C501.859772,1091.438477 479.028229,1100.514160 453.830994,1103.649170 
	C429.796173,1106.639282 405.902161,1105.470337 382.642456,1098.105469 
	C341.994049,1085.234619 318.161591,1057.201538 310.129425,1015.750427 
	C308.021362,1004.871521 307.986816,993.590820 306.999847,981.995605 
z" data-index="6" style="visibility: visible; opacity: 1;"></path>
</svg>